# xmcd CD database file
#
# Track frame offsets:
#	150
#	16552
#	29432
#	41575
#	56365
#	72760
#	87912
#	99497
#	111832
#	128572
#	144385
#	161692
#	178275
#	199947
#	216227
#	232342
#	249795
#	266135
#	282622
#	295880
#	312082
#
# Disc length: 4365 seconds
#
# Revision: 0
# Processed by: cddbd v1.5.2PL0 Copyright (c) Steve Scherf et al.
# Submitted via: CDex 1.70beta2
#
DISCID=35110b15
DTITLE=Jones Country - Jones Country JCY-004
DYEAR=0000
DGENRE=Country
TTITLE0=Glen Campbell/A Lady Like You
TTITLE1=Glen Campbell/Sunflower
TTITLE2=Johnny Cash/Flesh And Blood
TTITLE3=Johnny Cash and Waylon Jennings/There Ain't No Good Chain Gang
TTITLE4=Roseanne Cash/Hold On
TTITLE5=Roseanne Cash/Never Be You
TTITLE6=Roy Clark/I Never Picked Cotton
TTITLE7=Roy Clark/Thank God And Greyhound
TTITLE8=David Allan Coe/Mona Lisa Lost Her Smile
TTITLE9=Jessi Colter/I'm Not Lisa
TTITLE10=EarlThomas Conley and Anita Poiinter/Too Many Times
TTITLE11=Gail Davies/Someone Is Looking For Someone Like You
TTITLE12=John Denver/Back Home Again
TTITLE13=John Denver/I'm Sorry
TTITLE14=Steve Earle/Hillbilly Highway
TTITLE15=Kenny Rogers and Sheena Easton/We've Got Tonight
TTITLE16=Exile/Hang On To Your Heart
TTITLE17=Janie Fricke/Tell Me A Lie
TTITLE18=Janie Fricke/Your Heart's Not In It
TTITLE19=Merle Haggard and Janie Fricke/A Place To Fall Apart
TTITLE20=Larry Gatlin and The Gatlin Brothers/Taking Somebody With Me When I Fall
EXTD=YEAR: 0000
EXTT0=
EXTT1=
EXTT2=
EXTT3=
EXTT4=
EXTT5=
EXTT6=
EXTT7=
EXTT8=
EXTT9=
EXTT10=
EXTT11=
EXTT12=
EXTT13=
EXTT14=
EXTT15=
EXTT16=
EXTT17=
EXTT18=
EXTT19=
EXTT20=
PLAYORDER=
